<!DOCTYPE svg PUBLIC "-//W3C//DTD SVG 1.1//EN" "http://www.w3.org/Graphics/SVG/1.1/DTD/svg11.dtd">
<!-- Uploaded to: SVG Repo, www.svgrepo.com, Transformed by: SVG Repo Mixer Tools -->
<svg fill="#000000" width="128px" height="128px" viewBox="0 0 24 24" id="date-search" data-name="Flat Color" xmlns="http://www.w3.org/2000/svg" class="icon flat-color">
<g id="SVGRepo_bgCarrier" stroke-width="0"/>
<g id="SVGRepo_tracerCarrier" stroke-linecap="round" stroke-linejoin="round"/>
<g id="SVGRepo_iconCarrier">
<path id="primary" d="M21,7H3A1,1,0,0,0,2,8V20a2,2,0,0,0,2,2H20a2,2,0,0,0,2-2V8A1,1,0,0,0,21,7Z" style="fill: #000000;"/>
<path id="secondary" d="M22,6V9H2V6A2,2,0,0,1,4,4H20A2,2,0,0,1,22,6ZM15.71,18.71a1,1,0,0,1-1.42,0l-1.14-1.14a3.54,3.54,0,1,1,1.42-1.42l1.14,1.14A1,1,0,0,1,15.71,18.71ZM11.5,16A1.5,1.5,0,1,0,10,14.5,1.5,1.5,0,0,0,11.5,16Z" style="fill: #2ca9bc;"/>
<path id="primary-2" data-name="primary" d="M16,7a1,1,0,0,1-1-1V3a1,1,0,0,1,2,0V6A1,1,0,0,1,16,7ZM9,6V3A1,1,0,0,0,7,3V6A1,1,0,0,0,9,6Z" style="fill: #000000;"/>
</g>
</svg>